GIL03_slow3_RRA_states
nRows=8
nColumns=47

# SIMM Motion File Header:
name GIL03_slow3_RRA_states
datacolumns 47
datarows 8
otherdata 1
range 0.54767000000000021000 0.55117000000000016000
endheader
time	pelvis_tx	pelvis_ty	pelvis_tz	pelvis_tilt	pelvis_list	pelvis_rotation	hip_flexion_r	hip_adduction_r	hip_rotation_r	knee_angle_r	ankle_angle_r	subtalar_angle_r	mtp_angle_r	hip_flexion_l	hip_adduction_l	hip_rotation_l	knee_angle_l	ankle_angle_l	subtalar_angle_l	mtp_angle_l	lumbar_extension	lumbar_bending	lumbar_rotation	pelvis_tx_u	pelvis_ty_u	pelvis_tz_u	pelvis_tilt_u	pelvis_list_u	pelvis_rotation_u	hip_flexion_r_u	hip_adduction_r_u	hip_rotation_r_u	knee_angle_r_u	ankle_angle_r_u	subtalar_angle_r_u	mtp_angle_r_u	hip_flexion_l_u	hip_adduction_l_u	hip_rotation_l_u	knee_angle_l_u	ankle_angle_l_u	subtalar_angle_l_u	mtp_angle_l_u	lumbar_extension_u	lumbar_bending_u	lumbar_rotation_u
      0.54767000000000021000	      0.93160901823055831000	      0.89354569357840297000	     -0.17937981805106709000	      0.52313954856592626000	     -0.30545320798109432000	     -0.28312451375613223000	     -3.74454869091417740000	      4.64522624026685980000	     -2.67657397056387800000	     -7.74439554004455570000	     10.70568697695091100000	     -0.00000000000002481985	     -0.00000000000011486571	     24.04231869544962700000	     -3.33305725398434440000	     -0.50553018884779399000	    -34.86758642715759000000	      6.60015488623322090000	     -0.00000000000000618745	     -0.00000000000000124277	     -8.46584801566886650000	      1.48773451182096060000	      2.86606867015250840000	      0.57020643186588582000	     -0.03868520748934002600	      0.05476224177509862700	      7.09134882994263820000	     -3.93113056565762160000	    -10.32301571667379900000	    -64.30682349425383400000	      6.47985564574573390000	     -9.19386744784016230000	     30.10322768614623700000	     15.88518793610216700000	     -0.00000000000040404859	     -0.00000000000081984919	     -3.00468501983238710000	     11.52800057866925200000	     28.33262154913699100000	    213.34393035212275000000	    -43.73082171713009800000	     -0.00000000000004711708	      0.00000000000000220069	    -12.78959348125122400000	     -1.16920669394858770000	     15.19569843519070300000
      0.54817000000000016000	      0.93189415884250448000	      0.89352629476816214000	     -0.17935242492861572000	      0.52672886467851043000	     -0.30745911682131799000	     -0.28831273315172518000	     -3.77674183925179330000	      4.64850534035156220000	     -2.68113221820154510000	     -7.72935864623956090000	     10.71363584184184200000	     -0.00000000000002501318	     -0.00000000000011528141	     24.04072741312490500000	     -3.32736467955513420000	     -0.49139133806413099000	    -34.76090925212366000000	      6.57828106812943590000	     -0.00000000000000621144	     -0.00000000000000124109	     -8.47229468887264400000	      1.48718578002938990000	      2.87370403926652610000	      0.57035608847516284000	     -0.03891005502580133900	      0.05481017545530964700	      7.26589883161639880000	     -4.09249570977160460000	    -10.42973383935929200000	    -64.46575779903132300000	      6.63650317512835560000	     -9.03912138617343610000	     30.04427511655375200000	     15.91037389228766600000	     -0.00000000000036552091	     -0.00000000000081982432	     -3.36041939175839670000	     11.24230419315145100000	     28.22270014351133900000	    213.36459684725105000000	    -43.76410072894779500000	     -0.00000000000004849038	      0.00000000000000460420	    -12.99715463926180400000	     -1.02573354120160510000	     15.34566909242023200000
      0.54867000000000021000	      0.93217937439088494000	      0.89350678350143786000	     -0.17932500794926326000	      0.53040543086631753000	     -0.30954569472310567000	     -0.29355411885723670000	     -3.80901443661098820000	      4.65186270219980180000	     -2.68561308721047400000	     -7.71435133890342150000	     10.72159743571523000000	     -0.00000000000002519956	     -0.00000000000011567913	     24.03895830092292500000	     -3.32181494201871800000	     -0.47730756879646863000	    -34.65422200366956700000	      6.55639113616882070000	     -0.00000000000000623563	     -0.00000000000000123869	     -8.47884522609171750000	      1.48670876534340230000	      2.88141422977187880000	      0.57050617600968745000	     -0.03913503391095379800	      0.05485766717014634700	      7.44034943491819690000	     -4.25380685858436270000	    -10.53567940005837900000	    -64.62461929403075100000	      6.79290307281608200000	     -8.88434705912027840000	     29.98487873734933400000	     15.93606854226771400000	     -0.00000000000037725937	     -0.00000000000077718105	     -3.71600413831874830000	     10.95665478276707600000	     28.11229832884276900000	    213.38422315884142000000	    -43.79527571037101600000	     -0.00000000000004860442	      0.00000000000000499900	    -13.20505024749095000000	     -0.88233817182862573000	     15.49498272743560400000
      0.54917000000000016000	      0.93246466508729209000	      0.89348715970731996000	     -0.17929756734061961000	      0.53416919346418612000	     -0.31171291226869097000	     -0.29884827914629802000	     -3.84136644116684690000	      4.65529819946038170000	     -2.69001657033558360000	     -7.69937384393519330000	     10.72957199836804800000	     -0.00000000000002539340	     -0.00000000000011607222	     24.03701143959004600000	     -3.31640801149814730000	     -0.46327911321025983000	    -34.54752520435722100000	      6.53448613264164630000	     -0.00000000000000625989	     -0.00000000000000123617	     -8.48549979099014710000	      1.48630342651648780000	      2.88919890553508860000	      0.57065667602732351000	     -0.03936017409547390400	      0.05490468379344656800	      7.61467593198607770000	     -4.41504935018786600000	    -10.64082440304352100000	    -64.78337631597555900000	      6.94903901376011660000	     -8.72960334634782780000	     29.92502380030006000000	     15.96229055852936100000	     -0.00000000000038620957	     -0.00000000000077896367	     -4.07140483044733960000	     10.67108535582913800000	     28.00145581569943000000	    213.40279708697690000000	    -43.82440931115348800000	     -0.00000000000004947182	      0.00000000000000530860	    -13.41325682416428900000	     -0.73903501462278720000	     15.64359743183471400000
      0.54967000000000021000	      0.93275003113260246000	      0.89346742329545448000	     -0.17927010335011992000	      0.53802008203465224000	     -0.31396073026435994000	     -0.30419480521060904000	     -3.87379779022647200000	      4.65881169461578270000	     -2.69434270531720840000	     -7.68442639417253210000	     10.73755981484071900000	     -0.00000000000002559184	     -0.00000000000011645605	     24.03488693243198800000	     -3.31114383795467580000	     -0.44930617978264281000	    -34.44081938402136000000	      6.51256705665544720000	     -0.00000000000000628480	     -0.00000000000000123339	     -8.49225853087810730000	      1.48596971263789260000	      2.89705770378803030000	      0.57080757000176829000	     -0.03958550531948415400	      0.05495119246084405300	      7.78885363633932750000	     -4.57620879954776690000	    -10.74514097751107800000	    -64.94199693850400500000	      7.10489518998261800000	     -8.57494836779245690000	     29.86469449034461100000	     15.98904343575917700000	     -0.00000000000041061467	     -0.00000000000070670737	     -4.42658705080045860000	     10.38562851827144400000	     27.89021263668083300000	    213.42030635690796000000	    -43.85156408708024100000	     -0.00000000000004948884	      0.00000000000000607591	    -13.62175092198462600000	     -0.59583816777051013000	     15.79147145989752200000
      0.55017000000000016000	      0.93303547271987963000	      0.89344757416494358000	     -0.17924261623839483000	      0.54195801808256316000	     -0.31628910472413180000	     -0.30959327747837284000	     -3.90630840989902330000	      4.66240304526061600000	     -2.69859154318564440000	     -7.66950923111705140000	     10.74556113344134700000	     -0.00000000000002579525	     -0.00000000000011681830	     24.03258489486634300000	     -3.30602235866882890000	     -0.43538896076653699000	    -34.33410507772317300000	      6.49063488795072810000	     -0.00000000000000630938	     -0.00000000000000123051	     -8.49912158575832070000	      1.48570756816495990000	      2.90499024667923500000	      0.57095883930599955000	     -0.03981105859318027200	      0.05499715966598588100	      7.96285702347734860000	     -4.73726999614866880000	    -10.84860155693112600000	    -65.10044812440082800000	      7.26045485669219120000	     -8.42044045249991410000	     29.80387518669611800000	     16.01634551227932900000	     -0.00000000000043522741	     -0.00000000000069565560	     -4.78151487620963510000	     10.10031788267560200000	     27.77860845152227000000	    213.43673726280167000000	    -43.87680244459146200000	     -0.00000000000004908175	      0.00000000000000575539	    -13.83050784569373600000	     -0.45276258695021526000	     15.93856341840648500000
      0.55067000000000021000	      0.93332099003137625000	      0.89342761219468747000	     -0.17921510628622719000	      0.54598290579477038000	     -0.31869798143852068000	     -0.31504325954873841000	     -3.93889820459753450000	      4.66607209739281710000	     -2.70276317988599150000	     -7.65462260342990320000	     10.75357625242395400000	     -0.00000000000002601911	     -0.00000000000011716187	     24.03010546586379400000	     -3.30104349023945700000	     -0.42152762485856832000	    -34.22738282878044200000	      6.46869056322686560000	     -0.00000000000000633367	     -0.00000000000000122784	     -8.50608907846577720000	      1.48551692744266010000	      2.91299613002061620000	      0.57111046523241404000	     -0.04003686461296408100	      0.05504255218101282400	      8.13666062292235280000	     -4.89821808062166220000	    -10.95117869279675600000	    -65.25869659917822200000	      7.41570188372431090000	     -8.26613743935676660000	     29.74254928943066300000	     16.04419982322554400000	     -0.00000000000047382672	     -0.00000000000066893000	     -5.13615242161637560000	      9.81518657354508940000	     27.66668325133850800000	    213.45207601361770000000	    -43.90018667191065300000	     -0.00000000000004731433	      0.00000000000000577332	    -14.03950297166396900000	     -0.30982281168743592000	     16.08483208061423800000
      0.55117000000000016000	      0.93360658324149559000	      0.89340753725290967000	     -0.17918757378769926000	      0.55009464107039630000	     -0.32118730135119217000	     -0.32054430447702370000	     -3.97156706702830680000	      4.66981869217512550000	     -2.70685772423322700000	     -7.63976676904468020000	     10.76160542725223800000	     -0.00000000000002626038	     -0.00000000000011749340	     24.02744879695671200000	     -3.29620713656308300000	     -0.40772232448327012000	    -34.12065318623623300000	      6.44673500003183440000	     -0.00000000000000635773	     -0.00000000000000122520	     -8.51316112417347530000	      1.48539772019086280000	      2.92107493478349770000	      0.57126242927472259000	     -0.04026295486025985300	      0.05508733574558899400	      8.31023820502605480000	     -5.05903726280724890000	    -11.05284554263999500000	    -65.41670806128975400000	      7.57061894167198530000	     -8.11209627380539540000	     29.68070016236799100000	     16.07261797423040800000	     -0.00000000000051878579	     -0.00000000000066061607	     -5.49046246482776560000	      9.53026878446336670000	     27.55447639550280700000	    213.46630757872387000000	    -43.92177834240765600000	     -0.00000000000004903493	      0.00000000000000553964	    -14.24871050916445000000	     -0.16703416698475579000	     16.23023671171846200000
